<?xml version="1.0" encoding="UTF-8" standalone="no"?>
<!-- Created with Inkscape (http://www.inkscape.org/) -->

<svg
   width="50.296497"
   height="63.963013"
   viewBox="0 0 50.296497 63.963013"
   version="1.1"
   id="SVGRoot"
   xmlns="http://www.w3.org/2000/svg"
   xmlns:svg="http://www.w3.org/2000/svg">
  <defs
     id="defs12158" />
  <g
     id="layer1"
     transform="translate(-7.7453356,-0.00439572)">
    <path
       style="fill:#787cbb;fill-opacity:1;stroke:none;stroke-width:1.2324px;stroke-linecap:butt;stroke-linejoin:miter;stroke-opacity:1"
       d="M 51.297197,0.10111561 C 50.142798,16.712228 50.770649,26.787329 51.367849,36.97484 52.009882,40.640219 56.656192,40.237438 57.53303,36.9204 56.261517,26.234525 58.920025,16.07995 57.724191,0.10329824 Z"
       id="path13438" />
    <path
       style="fill:#b94f47;fill-opacity:1;stroke:none;stroke-width:1.22406px;stroke-linecap:butt;stroke-linejoin:miter;stroke-opacity:1"
       d="M 8.5634531,0.08804509 C 6.0865097,14.496596 10.183548,20.869909 8.5215658,49.167382 8.501104,52.503405 14.779122,52.229242 14.7265,49.04173 15.050054,41.021091 12.854448,35.268295 14.555241,24.440517 c -0.371617,-5.309176 6.354752,-6.235435 6.155185,-2.67e-4 -1.578458,18.181336 -1.453117,29.238105 0.08222,36.849995 -0.01703,3.67769 6.548044,3.431955 6.128245,0.08564 -1.9388,-44.591849 1.213102,-31.898799 -0.179634,-49.224524 0.01778,-4.3467117 6.437458,-3.4860967 6.426634,0.119235 -0.691678,9.13665 -0.722266,17.281694 -0.16704,24.548049 0.110582,5.791043 6.208909,5.460825 6.227566,0.01493 1.115078,-6.970181 0.08824,-14.656117 -0.210858,-22.098871 -0.176509,-3.362624 6.35968,-2.622102 6.235029,-0.04466 -1.501478,12.78559 -1.040875,25.277305 -0.09261,37.695979 -0.412444,3.665863 6.536059,4.417608 6.405135,0.131239 C 53.457906,39.756943 49.384323,17.9766 51.418861,0.00439572 Z"
       id="path12347" />
  </g>
</svg>
