<?xml version="1.0" encoding="UTF-8" standalone="no"?>
<!-- Created with Inkscape (http://www.inkscape.org/) -->

<svg
   width="44.807758"
   height="55.200317"
   viewBox="0 0 44.807758 55.200317"
   version="1.1"
   id="SVGRoot"
   xml:space="preserve"
   xmlns="http://www.w3.org/2000/svg"
   xmlns:svg="http://www.w3.org/2000/svg"><defs
     id="defs5190" /><g
     id="layer1"
     transform="translate(-10.225036,0.01269064)"
     style="display:inline"><path
       id="rect5377"
       style="fill:#ffffff;fill-opacity:1;stroke-width:1.54188"
       d="m 42.482901,-0.00606873 h -29.73437 c -1.320335,0 -2.383297,0.91319683 -2.383297,2.04750413 V 53.121274 c 0,1.134307 1.062962,2.047504 2.383297,2.047504 h 39.8967 c 1.320334,0 2.383296,-0.913197 2.383296,-2.047504 V 11.356232 c -0.0266,0.07815 -0.04792,0.158258 -0.08427,0.232366 -0.0627,0.127781 -0.138221,0.248485 -0.227353,0.362016 -0.08913,0.113531 -0.19151,0.220094 -0.303792,0.316554 -0.112282,0.09646 -0.23632,0.182733 -0.368471,0.259306 -0.13215,0.07657 -0.27265,0.143137 -0.421389,0.197005 -0.148737,0.05387 -0.304421,0.09626 -0.466467,0.124602 -0.162045,0.02834 -0.329674,0.04209 -0.501747,0.04209 H 42.5417 c -0.172073,0 -0.339702,-0.01375 -0.501747,-0.04209 -0.162046,-0.02834 -0.31773,-0.07074 -0.466468,-0.124602 -0.148739,-0.05387 -0.291199,-0.120431 -0.423349,-0.197005 -0.132151,-0.07657 -0.254229,-0.162843 -0.36651,-0.259306 -0.112282,-0.09646 -0.21466,-0.203023 -0.303792,-0.316554 -0.08913,-0.113531 -0.164651,-0.234235 -0.227353,-0.362016 -0.0627,-0.127783 -0.112045,-0.261531 -0.145037,-0.400746 -0.03299,-0.139216 -0.05096,-0.283226 -0.05096,-0.431054 V 2.1239417 c 0,-0.1478282 0.01796,-0.291839 0.05096,-0.4310536 0.03299,-0.1392143 0.08234,-0.2746467 0.145037,-0.4024288 0.0627,-0.127782 0.138221,-0.2484863 0.227353,-0.36201747 0.08913,-0.11353128 0.19151,-0.22009304 0.303792,-0.31655496 0.112281,-0.0964619 0.234359,-0.18273147 0.36651,-0.25930563 0.13215,-0.0765741 0.27461,-0.143137 0.423349,-0.19700491 0.148738,-0.0538679 0.304422,-0.0945744 0.466468,-0.1229176 0.143058,-0.02502225 0.291924,-0.03566693 0.442948,-0.03872746 z" /><path
       id="path6895"
       style="fill:#ffffff;fill-opacity:1;stroke-width:1.6928"
       d="m 44.931533,-0.00606873 h -2.691066 c -0.153942,0.00361905 -0.305686,0.01620637 -0.451508,0.04579499 -0.165177,0.03351563 -0.323869,0.0816509 -0.475481,0.14534932 -0.151613,0.0636984 -0.296826,0.14240873 -0.43153,0.23295711 -0.134704,0.0905484 -0.259141,0.1925618 -0.373593,0.30662734 -0.114452,0.1140655 -0.218807,0.24007438 -0.309663,0.37432427 -0.09086,0.1342498 -0.167833,0.2769823 -0.231746,0.4280835 -0.06391,0.1511015 -0.11421,0.3112498 -0.14784,0.4758697 -0.03363,0.1646202 -0.05194,0.3349124 -0.05194,0.5097182 V 12.720956 c 0,0.174806 0.01831,0.345098 0.05194,0.509718 0.03363,0.164621 0.08392,0.322778 0.14784,0.473879 0.06391,0.151101 0.140892,0.293834 0.231746,0.428083 0.09086,0.134249 0.195211,0.260259 0.309663,0.374325 0.114452,0.114065 0.238889,0.216078 0.373593,0.306626 0.134704,0.09055 0.279917,0.16926 0.43153,0.232958 0.151612,0.0637 0.310304,0.113825 0.475481,0.14734 0.165176,0.03351 0.336045,0.04978 0.511444,0.04978 h 10.308761 c 0.175398,0 0.346267,-0.01626 0.511443,-0.04978 0.165177,-0.03351 0.323869,-0.08364 0.475482,-0.14734 0.151613,-0.0637 0.294827,-0.142409 0.429531,-0.232958 0.134705,-0.09055 0.26114,-0.192561 0.375592,-0.306626 0.114451,-0.114066 0.218807,-0.240076 0.309662,-0.374325 0.09086,-0.134249 0.167834,-0.276982 0.231746,-0.428083 0.03707,-0.08763 0.0588,-0.182359 0.08591,-0.27477 v -3.24348 h -7.563754 c -0.0877,0 -0.174428,-0.0037 -0.259718,-0.01195 -0.08529,-0.0083 -0.169137,-0.02107 -0.251725,-0.03783 -0.08259,-0.01676 -0.162464,-0.03903 -0.241736,-0.06372 -0.07928,-0.02468 -0.15794,-0.05178 -0.233746,-0.083625 C 46.402041,9.9573363 46.328183,9.9206255 46.25609,9.8816668 46.183997,9.8427081 46.11367,9.8015014 46.046319,9.7562284 45.978965,9.7109543 45.914784,9.661959 45.85253,9.6108791 45.790277,9.5597991 45.729952,9.5066339 45.672725,9.449601 45.6155,9.3925682 45.560657,9.3329447 45.508904,9.2704033 45.457152,9.2078618 45.40849,9.1424015 45.363063,9.0752767 45.317635,9.0081514 45.27579,8.9375647 45.2372,8.8662127 45.19861,8.7948609 45.16327,8.7227436 45.131317,8.6471932 c -0.03195,-0.07555 -0.06114,-0.1539528 -0.08591,-0.2329572 -0.02477,-0.079005 -0.04512,-0.1586112 -0.06194,-0.2409214 -0.01682,-0.08231 -0.02918,-0.1658757 -0.03796,-0.2508769 -0.0088,-0.085001 -0.01399,-0.1714384 -0.01399,-0.2588412 z" /><path
       id="path6956"
       style="fill:#ffffff;fill-opacity:1;stroke-width:1.70424"
       d="M 55.019695,10.191251 44.9312,-0.01269064 V 7.6326926 c 0,0.088645 0.0052,0.1763107 0.01398,0.2625198 0.0088,0.08621 0.02113,0.1709623 0.03794,0.2544422 0.01681,0.08348 0.03715,0.1642183 0.06189,0.2443453 0.02475,0.080127 0.05391,0.1596434 0.08585,0.2362678 0.03193,0.076624 0.06725,0.1497662 0.105815,0.2221321 0.03857,0.072366 0.08038,0.1439561 0.125782,0.2120352 0.0454,0.068079 0.09402,0.1344693 0.145747,0.1978995 0.05171,0.06343 0.106528,0.1239012 0.163715,0.1817444 0.05719,0.057844 0.117476,0.1117642 0.17969,0.1635702 0.06222,0.051806 0.126354,0.1014972 0.193663,0.1474148 0.06731,0.045917 0.13759,0.087709 0.209637,0.1272211 0.07204,0.039512 0.145857,0.076745 0.221615,0.1090467 0.07576,0.0323 0.154374,0.059778 0.233595,0.084812 0.07922,0.02504 0.159046,0.04762 0.241581,0.06462 0.08254,0.017 0.166329,0.03 0.251562,0.03837 0.08524,0.0084 0.171908,0.01212 0.259551,0.01212 z" /><g
       id="layer1-9"
       transform="matrix(0.29137054,0,0,0.29137054,9.2564951,0.20603055)"><path
         style="fill:#787cbb;fill-opacity:1;stroke:none;stroke-width:1.2324px;stroke-linecap:butt;stroke-linejoin:miter;stroke-opacity:1"
         d="M 51.297197,0.10111561 C 50.142798,16.712228 50.770649,26.787329 51.367849,36.97484 52.009882,40.640219 56.656192,40.237438 57.53303,36.9204 56.261517,26.234525 58.920025,16.07995 57.724191,0.10329824 Z"
         id="path13438" /><path
         style="fill:#b94f47;fill-opacity:1;stroke:none;stroke-width:1.22406px;stroke-linecap:butt;stroke-linejoin:miter;stroke-opacity:1"
         d="M 8.5634531,0.08804509 C 6.0865097,14.496596 10.183548,20.869909 8.5215658,49.167382 8.501104,52.503405 14.779122,52.229242 14.7265,49.04173 15.050054,41.021091 12.854448,35.268295 14.555241,24.440517 c -0.371617,-5.309176 6.354752,-6.235435 6.155185,-2.67e-4 -1.578458,18.181336 -1.453117,29.238105 0.08222,36.849995 -0.01703,3.67769 6.548044,3.431955 6.128245,0.08564 -1.9388,-44.591849 1.213102,-31.898799 -0.179634,-49.224524 0.01778,-4.3467117 6.437458,-3.4860967 6.426634,0.119235 -0.691678,9.13665 -0.722266,17.281694 -0.16704,24.548049 0.110582,5.791043 6.208909,5.460825 6.227566,0.01493 1.115078,-6.970181 0.08824,-14.656117 -0.210858,-22.098871 -0.176509,-3.362624 6.35968,-2.622102 6.235029,-0.04466 -1.501478,12.78559 -1.040875,25.277305 -0.09261,37.695979 -0.412444,3.665863 6.536059,4.417608 6.405135,0.131239 C 53.457906,39.756943 49.384323,17.9766 51.418861,0.00439572 Z"
         id="path12347" /><rect
         style="fill:#b94f47;fill-opacity:1;stroke:none;stroke-width:0.987847;stroke-dasharray:none;stroke-opacity:1"
         id="rect7038"
         width="24.918297"
         height="2.0118902"
         x="9.0549936"
         y="18.049301"
         ry="1.0059451"
         transform="matrix(3.432056,0,0,3.432056,3.3240866,-0.75066336)" /><rect
         style="fill:#787cbb;fill-opacity:1;stroke:none;stroke-width:0.987847;stroke-dasharray:none;stroke-opacity:1"
         id="rect7038-7"
         width="24.918297"
         height="2.0118902"
         x="9.0549936"
         y="24.592569"
         ry="1.0059451"
         transform="matrix(3.432056,0,0,3.432056,3.3240866,-0.75066336)" /><rect
         style="fill:#b94f47;fill-opacity:1;stroke:none;stroke-width:0.987847;stroke-dasharray:none;stroke-opacity:1"
         id="rect7038-71"
         width="24.918297"
         height="2.0118902"
         x="9.0549936"
         y="31.135839"
         ry="1.0059451"
         transform="matrix(3.432056,0,0,3.432056,3.3240866,-0.75066336)" /><rect
         style="fill:#787cbb;fill-opacity:1;stroke:none;stroke-width:0.903862;stroke-dasharray:none;stroke-opacity:1"
         id="rect7038-7-1"
         width="20.861397"
         height="2.0118902"
         x="9.0549936"
         y="37.679108"
         ry="1.0059451"
         transform="matrix(3.432056,0,0,3.432056,3.3240866,-0.75066336)" /><g
         id="layer3"
         transform="matrix(3.432056,0,0,3.432056,3.3240866,-0.75066336)"><rect
           style="fill:#3a3a3c;fill-opacity:1;stroke:none;stroke-width:1.46919;stroke-dasharray:none;stroke-opacity:1"
           id="rect7038-5"
           width="55.118382"
           height="2.0118902"
           x="-55.175621"
           y="-3.3258056e-07"
           ry="1.0059451"
           transform="rotate(-90)" /><rect
           style="fill:#3a3a3c;fill-opacity:1;stroke:none;stroke-width:1.34889;stroke-dasharray:none;stroke-opacity:1"
           id="rect7038-5-5"
           width="46.462029"
           height="2.0118902"
           x="-55.007858"
           y="42.795147"
           ry="1.0059451"
           transform="rotate(-90)" /><rect
           style="fill:#3a3a3c;fill-opacity:1;stroke:none;stroke-width:1.17976;stroke-dasharray:none;stroke-opacity:1"
           id="rect7038-5-7"
           width="35.540844"
           height="2.0118902"
           x="-35.697712"
           y="-2.021445"
           ry="1.0059451"
           transform="scale(-1)" /><rect
           style="fill:#3a3a3c;fill-opacity:1;stroke:none;stroke-width:1.32403;stroke-dasharray:none;stroke-opacity:1"
           id="rect7038-5-7-6"
           width="44.764462"
           height="2.0118902"
           x="-44.780899"
           y="-55.200317"
           ry="1.0059451"
           transform="scale(-1)" /><rect
           style="fill:#3a3a3c;fill-opacity:1;stroke:none;stroke-width:0.641713;stroke-dasharray:none;stroke-opacity:1"
           id="rect7038-5-7-3"
           width="10.515303"
           height="2.0118902"
           x="0.028423339"
           y="-35.705505"
           ry="1.0059451"
           transform="rotate(90)" /><rect
           style="fill:#3a3a3c;fill-opacity:1;stroke:none;stroke-width:0.657116;stroke-dasharray:none;stroke-opacity:1"
           id="rect7038-5-7-3-8"
           width="11.02616"
           height="2.0118902"
           x="-44.718147"
           y="-10.550246"
           ry="1.0059451"
           transform="scale(-1)" /><rect
           style="fill:#3a3a3c;fill-opacity:1;stroke:none;stroke-width:0.762256;stroke-dasharray:none;stroke-opacity:1"
           id="rect7038-5-7-3-8-1"
           width="14.427637"
           height="2.068954"
           x="-38.054966"
           y="22.1555"
           ry="1.034477"
           transform="matrix(-0.72651682,-0.68714868,0.72651682,-0.68714868,0,0)" /></g></g></g></svg>
