<?xml version="1.0" encoding="UTF-8" standalone="no"?>
<!-- Created with Inkscape (http://www.inkscape.org/) -->

<svg
   width="64"
   height="64"
   viewBox="0 0 64 64"
   version="1.1"
   id="SVGRoot"
   xmlns="http://www.w3.org/2000/svg"
   xmlns:svg="http://www.w3.org/2000/svg">
  <defs
     id="defs3612" />
  <g
     id="layer1">
    <path
       fill-rule="evenodd"
       d="M 31.999968,0 C 14.319983,0 0,14.682204 0,32.809408 c 0,14.518155 9.1599908,26.780673 21.879976,31.127915 1.6,0.287086 2.200001,-0.697197 2.200001,-1.558442 0,-0.779225 -0.03999,-3.362967 -0.03999,-6.110757 -8.039991,1.517438 -10.119992,-2.009576 -10.759989,-3.855104 -0.36,-0.943266 -1.919995,-3.855105 -3.279999,-4.634329 -1.1199999,-0.615176 -2.7199972,-2.132608 -0.039981,-2.173618 2.519998,-0.04102 4.319996,2.378677 4.919998,3.362966 2.879997,4.96242 7.479988,3.568018 9.319993,2.706766 0.279995,-2.132607 1.120001,-3.568018 2.039998,-4.388252 -7.119998,-0.820235 -14.559986,-3.650039 -14.559986,-16.199642 0,-3.568025 1.239997,-6.520874 3.279997,-8.81753 -0.320004,-0.820235 -1.439998,-4.183201 0.319999,-8.694491 0,0 2.679996,-0.861246 8.799996,3.362966 2.559987,-0.738214 5.279986,-1.107321 7.999985,-1.107321 2.719998,0 5.439997,0.369107 7.999994,1.107321 6.119992,-4.265222 8.799991,-3.362966 8.799991,-3.362966 1.759999,4.51129 0.640005,7.874256 0.320002,8.694491 2.039996,2.296656 3.279992,5.208495 3.279992,8.81753 0,12.590606 -7.479992,15.379407 -14.599976,16.199642 1.159993,1.025293 2.159991,2.993853 2.159991,6.069739 0,4.388261 -0.03995,7.915268 -0.03995,9.022589 0,0.861245 0.599999,1.886538 2.199997,1.558442 A 32.051964,32.862719 0 0 0 64,32.809408 C 64,14.682204 49.680014,0 32.000032,0 Z"
       id="path4066-7-6"
       style="fill:#ffffff;fill-opacity:1;stroke:none;stroke-width:2.25473;stroke-dasharray:none;stroke-opacity:1" />
    <path
       fill-rule="evenodd"
       d="m 31.999967,1.089025 c -17.078298,0 -30.910942,14.183295 -30.910942,31.694527 0,14.02482 8.8482569,25.870651 21.135354,30.070172 1.545549,0.27733 2.125131,-0.673506 2.125131,-1.505486 0,-0.752746 -0.03863,-3.248691 -0.03863,-5.90311 -7.766374,1.465875 -9.775588,-1.941289 -10.393804,-3.724105 -0.347749,-0.911214 -1.854654,-3.724107 -3.168374,-4.476852 -1.0818841,-0.594272 -2.6274302,-2.060141 -0.03862,-2.099758 2.434237,-0.03963 4.172977,2.297849 4.75256,3.248691 2.781984,4.793794 7.225428,3.446775 9.002814,2.614789 0.270466,-2.06014 1.081885,-3.446775 1.970572,-4.239137 -6.877689,-0.792363 -14.064479,-3.526009 -14.064479,-15.64917 0,-3.446781 1.197798,-6.299291 3.168372,-8.517905 -0.309114,-0.792363 -1.390992,-4.041054 0.309109,-8.399048 0,0 2.58879,-0.83198 8.500513,3.248691 2.472866,-0.713129 5.100297,-1.069694 7.727729,-1.069694 2.627431,0 5.254862,0.356565 7.727737,1.069694 5.911716,-4.120288 8.500509,-3.248691 8.500509,-3.248691 1.700103,4.357994 0.618224,7.606685 0.309112,8.399048 1.97057,2.218614 3.168367,5.031507 3.168367,8.517905 0,12.162771 -7.225432,14.856807 -14.103108,15.64917 1.120516,0.990453 2.086482,2.89212 2.086482,5.863486 0,4.239145 -0.03859,7.646303 -0.03859,8.715996 0,0.83198 0.57958,1.822433 2.125127,1.505486 A 30.961168,31.746026 0 0 0 62.91097,32.783552 C 62.91097,15.27232 49.078323,1.089025 32.000028,1.089025 Z"
       id="path4066-7"
       style="fill:none;fill-opacity:1;stroke:#3a3a3c;stroke-width:2.17805;stroke-dasharray:none;stroke-opacity:1" />
  </g>
</svg>
